<svg width="303" height="143" viewBox="0 0 303 143" fill="none" xmlns="http://www.w3.org/2000/svg">
<ellipse cx="298.41" cy="3.61893" rx="3.09549" ry="4.00989" transform="rotate(90 298.41 3.61893)" fill="white"/>
<ellipse cx="298.41" cy="49.0193" rx="3.09548" ry="4.00989" transform="rotate(90 298.41 49.0193)" fill="white"/>
<ellipse cx="298.41" cy="94.4198" rx="3.09548" ry="4.00989" transform="rotate(90 298.41 94.4198)" fill="white"/>
<ellipse cx="298.41" cy="139.82" rx="3.09547" ry="4.00989" transform="rotate(90 298.41 139.82)" fill="white"/>
<ellipse cx="239.598" cy="3.61893" rx="3.09549" ry="4.00995" transform="rotate(90 239.598 3.61893)" fill="white"/>
<ellipse cx="239.599" cy="49.0193" rx="3.09548" ry="4.00995" transform="rotate(90 239.599 49.0193)" fill="white"/>
<ellipse cx="239.598" cy="94.4198" rx="3.09548" ry="4.00995" transform="rotate(90 239.598 94.4198)" fill="white"/>
<ellipse cx="239.598" cy="139.82" rx="3.09549" ry="4.00995" transform="rotate(90 239.598 139.82)" fill="white"/>
<ellipse cx="180.787" cy="3.61893" rx="3.09549" ry="4.00989" transform="rotate(90 180.787 3.61893)" fill="white"/>
<ellipse cx="180.787" cy="49.0193" rx="3.09548" ry="4.00989" transform="rotate(90 180.787 49.0193)" fill="white"/>
<ellipse cx="180.787" cy="94.4198" rx="3.09548" ry="4.00989" transform="rotate(90 180.787 94.4198)" fill="white"/>
<ellipse cx="180.787" cy="139.82" rx="3.09549" ry="4.00989" transform="rotate(90 180.787 139.82)" fill="white"/>
<ellipse cx="121.976" cy="3.61891" rx="3.09547" ry="4.00977" transform="rotate(90 121.976 3.61891)" fill="white"/>
<ellipse cx="121.976" cy="49.0193" rx="3.09548" ry="4.00977" transform="rotate(90 121.976 49.0193)" fill="white"/>
<ellipse cx="121.976" cy="94.4198" rx="3.09548" ry="4.00977" transform="rotate(90 121.976 94.4198)" fill="white"/>
<ellipse cx="121.976" cy="139.82" rx="3.09547" ry="4.00977" transform="rotate(90 121.976 139.82)" fill="white"/>
<ellipse cx="63.1646" cy="3.61892" rx="3.09548" ry="4.00977" transform="rotate(90 63.1646 3.61892)" fill="white"/>
<ellipse cx="63.1646" cy="49.0193" rx="3.09548" ry="4.00977" transform="rotate(90 63.1646 49.0193)" fill="white"/>
<ellipse cx="63.1646" cy="94.4197" rx="3.0955" ry="4.00977" transform="rotate(90 63.1646 94.4197)" fill="white"/>
<ellipse cx="63.1646" cy="139.82" rx="3.09547" ry="4.00977" transform="rotate(90 63.1646 139.82)" fill="white"/>
<ellipse cx="4.35352" cy="3.61892" rx="3.09548" ry="4.00977" transform="rotate(90 4.35352 3.61892)" fill="white"/>
<ellipse cx="4.35352" cy="49.0193" rx="3.09548" ry="4.00977" transform="rotate(90 4.35352 49.0193)" fill="white"/>
<ellipse cx="4.35352" cy="94.4197" rx="3.0955" ry="4.00977" transform="rotate(90 4.35352 94.4197)" fill="white"/>
<ellipse cx="4.35352" cy="139.82" rx="3.09547" ry="4.00977" transform="rotate(90 4.35352 139.82)" fill="white"/>
</svg>
