<svg width="122" height="133" viewBox="0 0 122 133" fill="none" xmlns="http://www.w3.org/2000/svg">
<ellipse cx="119.183" cy="2.8913" rx="2.8913" ry="2.63504" transform="rotate(90 119.183 2.8913)" fill="#17123B"/>
<ellipse cx="119.183" cy="45.2971" rx="2.8913" ry="2.63504" transform="rotate(90 119.183 45.2971)" fill="#17123B"/>
<ellipse cx="119.183" cy="87.7028" rx="2.8913" ry="2.63504" transform="rotate(90 119.183 87.7028)" fill="#17123B"/>
<ellipse cx="119.183" cy="130.109" rx="2.89131" ry="2.63504" transform="rotate(90 119.183 130.109)" fill="#17123B"/>
<ellipse cx="80.5359" cy="2.8913" rx="2.8913" ry="2.63504" transform="rotate(90 80.5359 2.8913)" fill="#17123B"/>
<ellipse cx="80.5358" cy="45.2971" rx="2.8913" ry="2.63507" transform="rotate(90 80.5358 45.2971)" fill="#17123B"/>
<ellipse cx="80.5358" cy="87.7028" rx="2.8913" ry="2.63507" transform="rotate(90 80.5358 87.7028)" fill="#17123B"/>
<ellipse cx="80.5358" cy="130.109" rx="2.89131" ry="2.63507" transform="rotate(90 80.5358 130.109)" fill="#17123B"/>
<ellipse cx="41.8889" cy="2.8913" rx="2.8913" ry="2.63504" transform="rotate(90 41.8889 2.8913)" fill="#17123B"/>
<ellipse cx="41.8889" cy="45.2971" rx="2.8913" ry="2.63504" transform="rotate(90 41.8889 45.2971)" fill="#17123B"/>
<ellipse cx="41.8889" cy="87.7028" rx="2.8913" ry="2.63504" transform="rotate(90 41.8889 87.7028)" fill="#17123B"/>
<ellipse cx="41.8889" cy="130.109" rx="2.89131" ry="2.63504" transform="rotate(90 41.8889 130.109)" fill="#17123B"/>
<ellipse cx="3.24139" cy="2.8913" rx="2.8913" ry="2.63507" transform="rotate(90 3.24139 2.8913)" fill="#17123B"/>
<ellipse cx="3.24139" cy="45.2971" rx="2.8913" ry="2.63507" transform="rotate(90 3.24139 45.2971)" fill="#17123B"/>
<ellipse cx="3.24139" cy="87.7028" rx="2.8913" ry="2.63507" transform="rotate(90 3.24139 87.7028)" fill="#17123B"/>
</svg>
