<svg width="190" height="79" viewBox="0 0 190 79" fill="none" xmlns="http://www.w3.org/2000/svg">
<g clip-path="url(#clip0_18357_289)">
<path d="M146.42 30.8195C149.668 34.6345 158.336 39.9755 167.022 30.8195" stroke="#F9D100" stroke-width="2.5"/>
<path d="M132.687 20.8784H176.636" stroke="#F9D100" stroke-width="2.5"/>
<path d="M133.875 21.9722V68.736" stroke="#F9D100" stroke-width="2.5"/>
<path d="M132.687 68.9062H180.756" stroke="#F9D100" stroke-width="2.5"/>
<path d="M181.597 0.976605C181.132 0.549465 180.38 0.549465 179.916 0.976605L172.352 7.93719C171.888 8.36433 171.888 9.05686 172.352 9.48395C172.816 9.91113 173.569 9.91113 174.033 9.48395L180.756 3.2968L187.479 9.48395C187.944 9.91113 188.696 9.91113 189.16 9.48395C189.624 9.05686 189.624 8.36433 189.16 7.93719L181.597 0.976605ZM181.945 70V1.75H179.568V70H181.945Z" fill="#F9D100"/>
</g>
<path d="M14.8057 36.65H3.95566V32H31.5057V36.65H20.7057V67H14.8057V36.65ZM46.7377 42.9C48.271 42.9 49.621 43.3167 50.7877 44.15L49.3877 48.75C48.7877 48.35 48.171 48.0667 47.5377 47.9C46.9377 47.7 46.2377 47.6 45.4377 47.6C42.8377 47.6 41.0044 49.5167 39.9377 53.35V67H34.4877V49.75C34.4877 48.95 34.3377 48.3 34.0377 47.8C33.7377 47.3 33.1877 46.7333 32.3877 46.1L36.0377 42.9C37.2044 43.5 38.071 44.1667 38.6377 44.9C39.2377 45.6 39.621 46.4833 39.7877 47.55C40.4877 46.1167 41.421 44.9833 42.5877 44.15C43.7544 43.3167 45.1377 42.9 46.7377 42.9ZM72.5842 60.75C72.5842 61.55 72.7342 62.2 73.0342 62.7C73.3342 63.2 73.8842 63.7667 74.6842 64.4L71.0342 67.6C69.1675 66.6667 67.9842 65.4333 67.4842 63.9C66.7175 64.9667 65.6675 65.85 64.3342 66.55C63.0008 67.25 61.4175 67.6 59.5842 67.6C57.1842 67.6 55.2842 67 53.8842 65.8C52.4842 64.5667 51.7842 62.8333 51.7842 60.6C51.7842 58.0333 52.6675 56.2167 54.4342 55.15C56.2008 54.0833 58.4508 53.4 61.1842 53.1L64.0842 52.8C65.1508 52.7 65.9008 52.5167 66.3342 52.25C66.8008 51.95 67.0675 51.5167 67.1342 50.95C66.9342 48.15 65.2508 46.75 62.0842 46.75C60.8508 46.75 59.7842 46.9667 58.8842 47.4C58.0175 47.8 57.1842 48.4833 56.3842 49.45L52.6342 46.8C53.5342 45.5667 54.7342 44.6167 56.2342 43.95C57.7342 43.25 59.6842 42.9 62.0842 42.9C65.5842 42.9 68.2008 43.6333 69.9342 45.1C71.7008 46.5333 72.5842 48.6333 72.5842 51.4V60.75ZM60.9342 63.6C62.8675 63.6 64.3842 63.1167 65.4842 62.15C66.5842 61.1833 67.1342 59.9667 67.1342 58.5V55.8C66.5008 56.0667 65.4008 56.2833 63.8342 56.45L61.5842 56.7C58.5175 57.0333 56.9842 58.25 56.9842 60.35C56.9842 61.4167 57.3175 62.2333 57.9842 62.8C58.6842 63.3333 59.6675 63.6 60.9342 63.6ZM87.9096 67.6C86.3429 67.6 85.0929 67.2 84.1596 66.4C83.2262 65.5667 82.4762 64.2 81.9096 62.3L76.0596 43.5H81.3596L86.8596 61.8C87.0596 62.4333 87.2096 62.85 87.3096 63.05C87.4429 63.25 87.6429 63.35 87.9096 63.35C88.1429 63.35 88.3262 63.25 88.4596 63.05C88.6262 62.8167 88.7929 62.4 88.9596 61.8L94.4096 43.5H99.6596L93.9096 62.3C93.3429 64.2 92.5929 65.5667 91.6596 66.4C90.7596 67.2 89.5096 67.6 87.9096 67.6ZM122.731 60.75C122.731 61.55 122.881 62.2 123.181 62.7C123.481 63.2 124.031 63.7667 124.831 64.4L121.181 67.6C119.314 66.6667 118.131 65.4333 117.631 63.9C116.864 64.9667 115.814 65.85 114.481 66.55C113.147 67.25 111.564 67.6 109.731 67.6C107.331 67.6 105.431 67 104.031 65.8C102.631 64.5667 101.931 62.8333 101.931 60.6C101.931 58.0333 102.814 56.2167 104.581 55.15C106.347 54.0833 108.597 53.4 111.331 53.1L114.231 52.8C115.297 52.7 116.047 52.5167 116.481 52.25C116.947 51.95 117.214 51.5167 117.281 50.95C117.081 48.15 115.397 46.75 112.231 46.75C110.997 46.75 109.931 46.9667 109.031 47.4C108.164 47.8 107.331 48.4833 106.531 49.45L102.781 46.8C103.681 45.5667 104.881 44.6167 106.381 43.95C107.881 43.25 109.831 42.9 112.231 42.9C115.731 42.9 118.347 43.6333 120.081 45.1C121.847 46.5333 122.731 48.6333 122.731 51.4V60.75ZM111.081 63.6C113.014 63.6 114.531 63.1167 115.631 62.15C116.731 61.1833 117.281 59.9667 117.281 58.5V55.8C116.647 56.0667 115.547 56.2833 113.981 56.45L111.731 56.7C108.664 57.0333 107.131 58.25 107.131 60.35C107.131 61.4167 107.464 62.2333 108.131 62.8C108.831 63.3333 109.814 63.6 111.081 63.6Z" fill="#333333"/>
<defs>
<clipPath id="clip0_18357_289">
<rect width="58" height="70" fill="white" transform="translate(132)"/>
</clipPath>
</defs>
</svg>
