<svg width="206" height="94" viewBox="0 0 206 94" fill="none" xmlns="http://www.w3.org/2000/svg">
<g clip-path="url(#clip0_18356_288)">
<path d="M157.913 34.782C161.496 39.0876 171.06 45.1153 180.645 34.782" stroke="#F9D100" stroke-width="3"/>
<path d="M142.758 23.5627H191.253" stroke="#F9D100" stroke-width="3"/>
<path d="M144.069 24.7971V77.5735" stroke="#F9D100" stroke-width="3"/>
<path d="M142.758 77.7656H195.8" stroke="#F9D100" stroke-width="3"/>
<path d="M196.727 1.10227C196.215 0.620208 195.384 0.620208 194.872 1.10227L186.526 8.95778C186.014 9.43984 186.014 10.2214 186.526 10.7034C187.038 11.1855 187.869 11.1855 188.381 10.7034L195.8 3.72077L203.219 10.7034C203.731 11.1855 204.561 11.1855 205.073 10.7034C205.585 10.2214 205.585 9.43984 205.073 8.95778L196.727 1.10227ZM197.111 79.0001V1.9751H194.488V79.0001H197.111Z" fill="#F9D100"/>
</g>
<path d="M21.3057 43.65H10.4557V39H38.0057V43.65H27.2057V74H21.3057V43.65ZM53.2377 49.9C54.771 49.9 56.121 50.3167 57.2877 51.15L55.8877 55.75C55.2877 55.35 54.671 55.0667 54.0377 54.9C53.4377 54.7 52.7377 54.6 51.9377 54.6C49.3377 54.6 47.5044 56.5167 46.4377 60.35V74H40.9877V56.75C40.9877 55.95 40.8377 55.3 40.5377 54.8C40.2377 54.3 39.6877 53.7333 38.8877 53.1L42.5377 49.9C43.7044 50.5 44.571 51.1667 45.1377 51.9C45.7377 52.6 46.121 53.4833 46.2877 54.55C46.9877 53.1167 47.921 51.9833 49.0877 51.15C50.2544 50.3167 51.6377 49.9 53.2377 49.9ZM79.0842 67.75C79.0842 68.55 79.2342 69.2 79.5342 69.7C79.8342 70.2 80.3842 70.7667 81.1842 71.4L77.5342 74.6C75.6675 73.6667 74.4842 72.4333 73.9842 70.9C73.2175 71.9667 72.1675 72.85 70.8342 73.55C69.5008 74.25 67.9175 74.6 66.0842 74.6C63.6842 74.6 61.7842 74 60.3842 72.8C58.9842 71.5667 58.2842 69.8333 58.2842 67.6C58.2842 65.0333 59.1675 63.2167 60.9342 62.15C62.7008 61.0833 64.9508 60.4 67.6842 60.1L70.5842 59.8C71.6508 59.7 72.4008 59.5167 72.8342 59.25C73.3008 58.95 73.5675 58.5167 73.6342 57.95C73.4342 55.15 71.7508 53.75 68.5842 53.75C67.3508 53.75 66.2842 53.9667 65.3842 54.4C64.5175 54.8 63.6842 55.4833 62.8842 56.45L59.1342 53.8C60.0342 52.5667 61.2342 51.6167 62.7342 50.95C64.2342 50.25 66.1842 49.9 68.5842 49.9C72.0842 49.9 74.7008 50.6333 76.4342 52.1C78.2008 53.5333 79.0842 55.6333 79.0842 58.4V67.75ZM67.4342 70.6C69.3675 70.6 70.8842 70.1167 71.9842 69.15C73.0842 68.1833 73.6342 66.9667 73.6342 65.5V62.8C73.0008 63.0667 71.9008 63.2833 70.3342 63.45L68.0842 63.7C65.0175 64.0333 63.4842 65.25 63.4842 67.35C63.4842 68.4167 63.8175 69.2333 64.4842 69.8C65.1842 70.3333 66.1675 70.6 67.4342 70.6ZM94.4096 74.6C92.8429 74.6 91.5929 74.2 90.6596 73.4C89.7262 72.5667 88.9762 71.2 88.4096 69.3L82.5596 50.5H87.8596L93.3596 68.8C93.5596 69.4333 93.7096 69.85 93.8096 70.05C93.9429 70.25 94.1429 70.35 94.4096 70.35C94.6429 70.35 94.8262 70.25 94.9596 70.05C95.1262 69.8167 95.2929 69.4 95.4596 68.8L100.91 50.5H106.16L100.41 69.3C99.8429 71.2 99.0929 72.5667 98.1596 73.4C97.2596 74.2 96.0096 74.6 94.4096 74.6ZM129.231 67.75C129.231 68.55 129.381 69.2 129.681 69.7C129.981 70.2 130.531 70.7667 131.331 71.4L127.681 74.6C125.814 73.6667 124.631 72.4333 124.131 70.9C123.364 71.9667 122.314 72.85 120.981 73.55C119.647 74.25 118.064 74.6 116.231 74.6C113.831 74.6 111.931 74 110.531 72.8C109.131 71.5667 108.431 69.8333 108.431 67.6C108.431 65.0333 109.314 63.2167 111.081 62.15C112.847 61.0833 115.097 60.4 117.831 60.1L120.731 59.8C121.797 59.7 122.547 59.5167 122.981 59.25C123.447 58.95 123.714 58.5167 123.781 57.95C123.581 55.15 121.897 53.75 118.731 53.75C117.497 53.75 116.431 53.9667 115.531 54.4C114.664 54.8 113.831 55.4833 113.031 56.45L109.281 53.8C110.181 52.5667 111.381 51.6167 112.881 50.95C114.381 50.25 116.331 49.9 118.731 49.9C122.231 49.9 124.847 50.6333 126.581 52.1C128.347 53.5333 129.231 55.6333 129.231 58.4V67.75ZM117.581 70.6C119.514 70.6 121.031 70.1167 122.131 69.15C123.231 68.1833 123.781 66.9667 123.781 65.5V62.8C123.147 63.0667 122.047 63.2833 120.481 63.45L118.231 63.7C115.164 64.0333 113.631 65.25 113.631 67.35C113.631 68.4167 113.964 69.2333 114.631 69.8C115.331 70.3333 116.314 70.6 117.581 70.6Z" fill="#17123B"/>
<defs>
<clipPath id="clip0_18356_288">
<rect width="64" height="79" fill="white" transform="translate(142)"/>
</clipPath>
</defs>
</svg>
