<svg width="64" height="79" viewBox="0 0 64 79" fill="none" xmlns="http://www.w3.org/2000/svg">
<g clip-path="url(#clip0_18273_8)">
<path d="M15.9126 34.782C19.4965 39.0876 29.0604 45.1153 38.6449 34.782" stroke="#F9D100" stroke-width="3"/>
<path d="M0.757812 23.5627H49.2533" stroke="#F9D100" stroke-width="3"/>
<path d="M2.06934 24.7971V77.5735" stroke="#F9D100" stroke-width="3"/>
<path d="M0.757812 77.7656H53.7997" stroke="#F9D100" stroke-width="3"/>
<path d="M54.7271 1.10227C54.2149 0.620208 53.3845 0.620208 52.8724 1.10227L44.5262 8.95778C44.0141 9.43984 44.0141 10.2214 44.5262 10.7034C45.0384 11.1855 45.8687 11.1855 46.3809 10.7034L53.7998 3.72077L61.2185 10.7034C61.7307 11.1855 62.5612 11.1855 63.0733 10.7034C63.5855 10.2214 63.5855 9.43984 63.0733 8.95778L54.7271 1.10227ZM55.1112 79.0001V1.9751H52.4883V79.0001H55.1112Z" fill="#F9D100"/>
</g>
<defs>
<clipPath id="clip0_18273_8">
<rect width="64" height="79" fill="white"/>
</clipPath>
</defs>
</svg>
